<svg id="Layer_5" enable-background="new 0 0 64 64" height="512" viewBox="0 0 64 64" width="512" xmlns="http://www.w3.org/2000/svg"><g><g><g><path d="m58.97 13.24c.6.15 1.14.43 1.59.81l-.01.01c-.18-.03-.36-.06-.55-.06-2.21 0-4 1.79-4 4s1.79 4 4 4c.73 0 1.41-.21 2-.55v4.55h-8.34c-.6-1.7-1.96-3.06-3.66-3.66v-8.34l-2.03-5.4c-.58-1.57-2.07-2.6-3.74-2.6h-11.23-10.23c-1.67 0-3.16 1.03-3.74 2.6l-1.25 3.33-.78 2.07v2 6.81c-.88-.52-1.9-.81-3-.81-2.61 0-4.84 1.67-5.66 4h-6.34v-4c2.21 0 4-1.79 4-4 0-1.67-1.03-3.1-2.48-3.7.53-.43 1.17-.71 1.87-.82l7.61-1.48 1.99-4.97c1.21-3.04 4.16-5.03 7.43-5.03h22.16c3.27 0 6.22 1.99 7.43 5.03l1.99 4.97z" fill="#ff826e"/></g><g><path d="m33 14v12h-13.34c-.48-1.35-1.43-2.48-2.66-3.19v-6.81h3c.83 0 1.58-.34 2.12-.88.31-.31.56-.69.7-1.12h.01z" fill="#fc6e51"/></g><g><path d="m50 14v8.34c-.63-.22-1.3-.34-2-.34-2.61 0-4.84 1.67-5.66 4h-9.34v-12z" fill="#fc6e51"/></g><g><path d="m47.97 8.6 2.03 5.4h-17v-8h11.23c1.67 0 3.16 1.03 3.74 2.6z" fill="#69d6f4"/></g><g><path d="m23 13c0-.55-.45-1-1-1h-4.04l-.18-.07 1.25-3.33c.58-1.57 2.07-2.6 3.74-2.6h10.23v8h-10.17-.01c.12-.31.18-.65.18-1z" fill="#69d6f4"/></g><g><path d="m17.96 12h4.04c.55 0 1 .45 1 1 0 .35-.06.69-.18 1-.14.43-.39.81-.7 1.12-.54.54-1.29.88-2.12.88h-3v-2l.78-2.07z" fill="#ccd1d9"/></g><g><path d="m3.52 14.3c1.45.6 2.48 2.03 2.48 3.7 0 2.21-1.79 4-4 4v-4.57c0-1.26.59-2.4 1.52-3.13z" fill="#fcd770"/></g><g><path d="m62 17.12v4.33c-.59.34-1.27.55-2 .55-2.21 0-4-1.79-4-4s1.79-4 4-4c.19 0 .37.03.55.06l.01-.01c.89.75 1.44 1.86 1.44 3.07z" fill="#fcd770"/></g><g><path d="m8 28c0 .7.12 1.37.34 2h-2.34c-2.21 0-4-1.79-4-4h6.34c-.22.63-.34 1.3-.34 2z" fill="#ccd1d9"/></g><g><path d="m42.34 30h-22.68c.22-.63.34-1.3.34-2s-.12-1.37-.34-2h13.34 9.34c-.22.63-.34 1.3-.34 2s.12 1.37.34 2z" fill="#ccd1d9"/></g><g><path d="m54 28c0-.7-.12-1.37-.34-2h8.34c0 2.21-1.79 4-4 4h-4.34c.22-.63.34-1.3.34-2z" fill="#ccd1d9"/></g><g><path d="m19.66 26c.22.63.34 1.3.34 2s-.12 1.37-.34 2c-.82 2.33-3.05 4-5.66 4s-4.84-1.67-5.66-4c-.22-.63-.34-1.3-.34-2s.12-1.37.34-2c.82-2.33 3.05-4 5.66-4 1.1 0 2.12.29 3 .81 1.23.71 2.18 1.84 2.66 3.19z" fill="#838f9b"/></g><g><path d="m53.66 26c.22.63.34 1.3.34 2s-.12 1.37-.34 2c-.82 2.33-3.05 4-5.66 4s-4.84-1.67-5.66-4c-.22-.63-.34-1.3-.34-2s.12-1.37.34-2c.82-2.33 3.05-4 5.66-4 .7 0 1.37.12 2 .34 1.7.6 3.06 1.96 3.66 3.66z" fill="#838f9b"/></g><g><circle cx="14" cy="28" fill="#ccd1d9" r="2"/></g><g><circle cx="48" cy="28" fill="#ccd1d9" r="2"/></g><g><path d="m34 45v6h-16.59c-1.18 2.93-4.05 5-7.41 5-2.96 0-5.62-1.61-7-4v-1h6c.55 0 1-.45 1-1v-4c0-.55-.45-1-1-1h-6v-1c1.38-2.39 4.04-4 7-4 3.36 0 6.23 2.07 7.41 5z" fill="#ccd1d9"/></g><g><path d="m62 45v6l-2.57.65c-.2.64-.47 1.25-.77 1.84l1.36 2.29-4.24 4.24-2.29-1.36c-.59.3-1.2.57-1.84.77l-.65 2.57h-6l-.65-2.57c-.64-.2-1.25-.47-1.84-.77l-2.29 1.36-4.24-4.24 1.36-2.29c-.3-.59-.57-1.2-.77-1.84l-2.57-.65v-6l2.57-.65c.2-.64.47-1.25.77-1.84l-1.36-2.29 4.24-4.24 2.29 1.36c.59-.3 1.2-.57 1.84-.77l.65-2.57h3 3l.65 2.57c.64.2 1.25.47 1.84.77l2.29-1.36 4.24 4.24-1.36 2.29c.3.59.57 1.2.77 1.84zm-6 3c0-4.42-3.58-8-8-8s-8 3.58-8 8 3.58 8 8 8 8-3.58 8-8z" fill="#ffc729"/></g><g><path d="m48 40c4.42 0 8 3.58 8 8s-3.58 8-8 8-8-3.58-8-8 3.58-8 8-8zm4 8c0-2.21-1.79-4-4-4s-4 1.79-4 4 1.79 4 4 4 4-1.79 4-4z" fill="#fcd770"/></g></g><g><g><path d="m51.777 63h-7.555l-.713-2.802c-.319-.119-.639-.252-.956-.4l-2.49 1.48-5.342-5.342 1.48-2.49c-.147-.317-.281-.636-.4-.956l-2.801-.713v-7.555l2.802-.713c.119-.319.252-.639.4-.956l-1.48-2.489 5.342-5.342 2.49 1.48c.317-.147.636-.281.956-.4l.713-2.802h7.555l.713 2.802c.319.119.639.252.956.4l2.49-1.48 5.342 5.342-1.48 2.489c.147.317.281.637.4.956l2.801.714v7.555l-2.802.713c-.119.319-.252.639-.4.956l1.48 2.49-5.342 5.342-2.49-1.48c-.317.147-.636.281-.956.4zm-6-2h4.445l.599-2.354.528-.169c.56-.179 1.125-.416 1.683-.704l.493-.254 2.095 1.246 3.143-3.143-1.246-2.095.254-.493c.288-.558.525-1.124.704-1.683l.169-.528 2.356-.6v-4.445l-2.354-.599-.169-.528c-.179-.559-.416-1.125-.704-1.684l-.254-.493 1.246-2.095-3.143-3.143-2.095 1.246-.493-.254c-.558-.288-1.124-.525-1.683-.704l-.528-.169-.6-2.355h-4.445l-.599 2.354-.528.169c-.56.179-1.125.416-1.683.704l-.493.254-2.095-1.246-3.143 3.143 1.246 2.095-.254.493c-.288.559-.525 1.125-.704 1.684l-.169.528-2.356.599v4.445l2.354.599.169.528c.179.56.416 1.125.704 1.683l.254.493-1.246 2.095 3.143 3.143 2.095-1.246.493.254c.558.288 1.124.525 1.683.704l.528.169z"/></g><g><path d="m48 57c-4.962 0-9-4.038-9-9s4.038-9 9-9 9 4.038 9 9-4.038 9-9 9zm0-16c-3.86 0-7 3.14-7 7s3.14 7 7 7 7-3.14 7-7-3.14-7-7-7z"/></g><g><path d="m48 53c-2.757 0-5-2.243-5-5s2.243-5 5-5 5 2.243 5 5-2.243 5-5 5zm0-8c-1.654 0-3 1.346-3 3s1.346 3 3 3 3-1.346 3-3-1.346-3-3-3z"/></g><g><path d="m60 23c-2.757 0-5-2.243-5-5s2.243-5 5-5c.208 0 .409.025.609.054l-.196 1.992-.085-.012c-.108-.015-.216-.034-.328-.034-1.654 0-3 1.346-3 3s1.346 3 3 3c.516 0 1.02-.141 1.497-.419l1.007 1.729c-.788.458-1.63.69-2.504.69z"/></g><g><path d="m48 25c-1.654 0-3 1.346-3 3s1.346 3 3 3 3-1.346 3-3-1.346-3-3-3zm0 4c-.551 0-1-.449-1-1s.449-1 1-1 1 .449 1 1-.449 1-1 1z"/><path d="m14 25c-1.654 0-3 1.346-3 3s1.346 3 3 3 3-1.346 3-3-1.346-3-3-3zm0 4c-.551 0-1-.449-1-1s.449-1 1-1 1 .449 1 1-.449 1-1 1z"/><path d="m59.213 12.272-4.474-1.119-1.799-4.496c-1.375-3.436-4.654-5.657-8.356-5.657h-22.167c-3.702 0-6.982 2.221-8.357 5.657l-1.786 4.465-7.035 1.368c-2.456.378-4.239 2.456-4.239 4.942v8.568c0 2.757 2.243 5 5 5h1.685c1.126 2.361 3.53 4 6.315 4s5.189-1.639 6.315-4h21.37c1.126 2.361 3.53 4 6.315 4s5.189-1.639 6.315-4h3.685c2.757 0 5-2.243 5-5v-8.877c0-2.299-1.558-4.293-3.787-4.851zm-45.487.605 2.191-5.477c1.069-2.673 3.62-4.4 6.5-4.4h22.167c2.879 0 5.43 1.727 6.499 4.4l2.178 5.446 5.467 1.367c1.337.334 2.272 1.531 2.272 2.91v7.877h-6.685c-.692-1.45-1.865-2.623-3.315-3.315v-7.866l-2.09-5.574c-.728-1.941-2.609-3.245-4.682-3.245h-21.456c-2.073 0-3.954 1.304-4.682 3.245l-2.09 5.574v7.476c-.634-.19-1.305-.295-2-.295-2.785 0-5.189 1.639-6.315 4h-4.685v-2.101c2.279-.465 4-2.485 4-4.899 0-1.357-.551-2.609-1.472-3.527.019-.003.036-.01.055-.013zm4.274 9.387v-5.264h2c1.474 0 2.75-.81 3.444-2h8.556v10h-11.685c-.525-1.1-1.324-2.043-2.315-2.736zm26.228-15.264c1.244 0 2.372.782 2.809 1.947l1.52 4.053h-14.557v-6zm-12.228 6h-8c0-1.103-.897-2-2-2h-2.807l.77-2.053c.437-1.165 1.565-1.947 2.809-1.947h9.228zm-14 1.181.443-1.181h3.557c0 1.103-.897 2-2 2h-2zm16 .819h15v6.08c-.328-.047-.66-.08-1-.08-2.785 0-5.189 1.639-6.315 4h-7.685zm-30.316.529c.812.551 1.316 1.463 1.316 2.471 0 1.302-.839 2.402-2 2.816v-3.384c0-.722.255-1.383.684-1.903zm2.316 13.471c-1.302 0-2.402-.839-2.816-2h3.896c-.047.328-.08.66-.08 1s.033.672.08 1zm8 4c-2.757 0-5-2.243-5-5s2.243-5 5-5 5 2.243 5 5-2.243 5-5 5zm6.92-4c.047-.328.08-.66.08-1s-.033-.672-.08-1h20.16c-.047.328-.08.66-.08 1s.033.672.08 1zm27.08 4c-2.757 0-5-2.243-5-5s2.243-5 5-5 5 2.243 5 5-2.243 5-5 5zm10-4h-3.08c.047-.328.08-.66.08-1s-.033-.672-.08-1h5.896c-.414 1.161-1.514 2-2.816 2z"/><path d="m10 39c-3.244 0-6.258 1.724-7.865 4.499l-.135.232v2.269h7v4h-7v2.269l.135.233c1.607 2.774 4.621 4.498 7.865 4.498 3.453 0 6.546-1.941 8.06-5h15.94v-2h-17.261l-.253.625c-1.077 2.658-3.623 4.375-6.486 4.375-2.331 0-4.507-1.136-5.814-3h4.814c1.103 0 2-.897 2-2v-4c0-1.103-.897-2-2-2h-4.814c1.307-1.864 3.484-3 5.814-3 2.863 0 5.409 1.717 6.486 4.375l.253.625h17.261v-2h-15.94c-1.514-3.059-4.607-5-8.06-5z"/></g></g></g></svg>