<svg id="Capa_1" enable-background="new 0 0 512 512" height="512" viewBox="0 0 512 512" width="512" xmlns="http://www.w3.org/2000/svg"><g><path id="XMLID_245_" d="m462 227.25-8.228 8.75h-57.098c-32.982 0-64.318-13.235-85.973-36.311-14.126-15.054-34.062-33.689-54.701-33.689s-40.576 8.635-54.699 23.689c-21.656 23.076-52.992 36.311-85.975 36.311h-70.326v.945l-27.667 8.721v86.215h41.273l3.581 10.182c17.152-7.164 28.757-11.301 37.439-13.509 9.573-2.433 15.587-2.554 21.374-2.554 54.688 0 97.219 48.734 88.981 103.49h-.035c-2.167 14.836-8.037 28.861-16.98 40.844h-25.633v26.711h88.667l60.667-10-4.167-11.545-3.466-5.166c-8.946-11.986-14.816-26.017-16.98-40.844h-.035c-8.952-59.505 54.814-127.592 120.354-110.936 8.105 2.061 18.76 5.805 34.092 12.12l5.785 7.576 25.083-1.916 10-105.334z" fill="#3d6c84"/><path id="XMLID_250_" d="m326.667 460.334h-7.633c-8.946-11.986-14.816-26.017-16.98-40.844h-.035c-8.237-54.746 34.284-103.49 88.981-103.49 5.787 0 11.801.121 21.373 2.554 8.105 2.061 18.76 5.805 34.092 12.12l-3.132 10.992 44-5.332v-125.334h-36.333l2.772 15h-57.098c-32.982 0-64.318-13.235-85.973-36.311-14.126-15.054-34.062-23.689-54.701-23.689v321.045h70.667z" fill="#2e5167"/><path id="XMLID_256_" d="m426.812 75.188c-48.485-48.486-143.812-75.188-170.812-75.188-140.957 0-256 115.049-256 256 0 68.113 26.702 132.327 75.188 180.812s112.699 75.188 180.812 75.188c35 0 122.327-26.702 170.812-75.188 100.301-100.3 100.334-261.289 0-361.624zm-170.812 375.812c-107.523 0-195-87.477-195-195s87.477-195 195-195c129.36 0 205 87.477 205 195s-77 195-205 195z" fill="#2e5167"/><path id="XMLID_260_" d="m512 256c0-140.958-115.049-256-256-256v61c107.523 0 195 87.477 195 195s-87.477 195-195 195v61c140.96 0 256-115.049 256-256z" fill="#1e3442"/><circle id="XMLID_263_" cx="256" cy="271" fill="#f3d752" r="45"/><path id="XMLID_264_" d="m301 271c0-24.814-20.186-45-45-45v90c24.814 0 45-20.186 45-45z" fill="#e59a32"/><circle id="XMLID_267_" cx="256" cy="271" fill="#f5f5f5" r="15"/><path id="XMLID_270_" d="m271 271c0-8.272-6.728-15-15-15v30c8.272 0 15-6.728 15-15z" fill="#efe6ca"/></g></svg>